<svg xmlns="http://www.w3.org/2000/svg" viewBox="0 0 720 80">
  <defs>
    <marker id="arrow1" markerWidth="8" markerHeight="6" refX="8" refY="3" orient="auto">
      <path d="M0,0 L8,3 L0,6" fill="#555"/>
    </marker>
  </defs>
  <rect x="2" y="20" width="70" height="40" rx="6" fill="#e3f2fd" stroke="#1976d2" stroke-width="1.5"/>
  <text x="37" y="44" text-anchor="middle" font-size="11" font-family="sans-serif" fill="#1976d2">レンズ</text>
  <line x1="72" y1="40" x2="95" y2="40" stroke="#555" stroke-width="1.2" marker-end="url(#arrow1)"/>

  <rect x="98" y="20" width="60" height="40" rx="6" fill="#e3f2fd" stroke="#1976d2" stroke-width="1.5"/>
  <text x="128" y="44" text-anchor="middle" font-size="11" font-family="sans-serif" fill="#1976d2">絞り</text>
  <line x1="158" y1="40" x2="181" y2="40" stroke="#555" stroke-width="1.2" marker-end="url(#arrow1)"/>

  <rect x="184" y="20" width="80" height="40" rx="6" fill="#e3f2fd" stroke="#1976d2" stroke-width="1.5"/>
  <text x="224" y="44" text-anchor="middle" font-size="11" font-family="sans-serif" fill="#1976d2">シャッター</text>
  <line x1="264" y1="40" x2="287" y2="40" stroke="#555" stroke-width="1.2" marker-end="url(#arrow1)"/>

  <rect x="290" y="20" width="80" height="40" rx="6" fill="#fff3e0" stroke="#e65100" stroke-width="1.5"/>
  <text x="330" y="44" text-anchor="middle" font-size="11" font-family="sans-serif" fill="#e65100">撮像素子</text>
  <line x1="370" y1="40" x2="393" y2="40" stroke="#555" stroke-width="1.2" marker-end="url(#arrow1)"/>

  <rect x="396" y="20" width="80" height="40" rx="6" fill="#f3e5f5" stroke="#7b1fa2" stroke-width="1.5"/>
  <text x="436" y="38" text-anchor="middle" font-size="10" font-family="sans-serif" fill="#7b1fa2">アナログ</text>
  <text x="436" y="52" text-anchor="middle" font-size="10" font-family="sans-serif" fill="#7b1fa2">信号処理</text>
  <line x1="476" y1="40" x2="499" y2="40" stroke="#555" stroke-width="1.2" marker-end="url(#arrow1)"/>

  <rect x="502" y="20" width="80" height="40" rx="6" fill="#e8f5e9" stroke="#2e7d32" stroke-width="1.5"/>
  <text x="542" y="38" text-anchor="middle" font-size="10" font-family="sans-serif" fill="#2e7d32">A/D</text>
  <text x="542" y="52" text-anchor="middle" font-size="10" font-family="sans-serif" fill="#2e7d32">変換器</text>
  <line x1="582" y1="40" x2="605" y2="40" stroke="#555" stroke-width="1.2" marker-end="url(#arrow1)"/>

  <rect x="608" y="20" width="108" height="40" rx="6" fill="#fce4ec" stroke="#c62828" stroke-width="1.5"/>
  <text x="662" y="38" text-anchor="middle" font-size="10" font-family="sans-serif" fill="#c62828">ディジタル</text>
  <text x="662" y="52" text-anchor="middle" font-size="10" font-family="sans-serif" fill="#c62828">信号処理</text>
</svg>
