<svg xmlns="http://www.w3.org/2000/svg" viewBox="0 0 400 320" width="400" height="320" font-family="sans-serif">
  <rect width="400" height="320" fill="#fafafa" rx="8"/>

  <!-- Title -->
  <text x="200" y="28" text-anchor="middle" font-size="15" font-weight="bold" fill="#333">カラーチェッカークラシック</text>

  <!-- Card background -->
  <rect x="30" y="42" width="340" height="230" rx="6" fill="#3a3a3a"/>

  <!-- 6x4 grid of color patches -->
  <!-- Row 1: Natural colors -->
  <rect x="42" y="52" width="46" height="46" rx="3" fill="#735244"/>
  <rect x="96" y="52" width="46" height="46" rx="3" fill="#c29682"/>
  <rect x="150" y="52" width="46" height="46" rx="3" fill="#627a9d"/>
  <rect x="204" y="52" width="46" height="46" rx="3" fill="#576c43"/>
  <rect x="258" y="52" width="46" height="46" rx="3" fill="#8580b1"/>
  <rect x="312" y="52" width="46" height="46" rx="3" fill="#67bdaa"/>

  <!-- Row 2: Miscellaneous colors -->
  <rect x="42" y="106" width="46" height="46" rx="3" fill="#d67e2c"/>
  <rect x="96" y="106" width="46" height="46" rx="3" fill="#505ba6"/>
  <rect x="150" y="106" width="46" height="46" rx="3" fill="#c15a63"/>
  <rect x="204" y="106" width="46" height="46" rx="3" fill="#5e3c6c"/>
  <rect x="258" y="106" width="46" height="46" rx="3" fill="#9dbc40"/>
  <rect x="312" y="106" width="46" height="46" rx="3" fill="#e0a32e"/>

  <!-- Row 3: Primary/Secondary colors -->
  <rect x="42" y="160" width="46" height="46" rx="3" fill="#383d96"/>
  <rect x="96" y="160" width="46" height="46" rx="3" fill="#469449"/>
  <rect x="150" y="160" width="46" height="46" rx="3" fill="#af363c"/>
  <rect x="204" y="160" width="46" height="46" rx="3" fill="#e7c71f"/>
  <rect x="258" y="160" width="46" height="46" rx="3" fill="#bb5695"/>
  <rect x="312" y="160" width="46" height="46" rx="3" fill="#0885a1"/>

  <!-- Row 4: Grayscale -->
  <rect x="42" y="214" width="46" height="46" rx="3" fill="#f3f3f2"/>
  <rect x="96" y="214" width="46" height="46" rx="3" fill="#c8c8c8"/>
  <rect x="150" y="214" width="46" height="46" rx="3" fill="#a0a0a0"/>
  <rect x="204" y="214" width="46" height="46" rx="3" fill="#7a7a79"/>
  <rect x="258" y="214" width="46" height="46" rx="3" fill="#555555"/>
  <rect x="312" y="214" width="46" height="46" rx="3" fill="#343434"/>

  <!-- Annotation -->
  <text x="200" y="295" text-anchor="middle" font-size="12" fill="#666">反射率既知の24色パッチ（最下段はグレースケール）</text>
  <text x="200" y="312" text-anchor="middle" font-size="11" fill="#888">入射光強度と画素値の対応からカメラ応答関数を推定</text>
</svg>