<svg xmlns="http://www.w3.org/2000/svg" viewBox="0 0 460 160">
  <!-- 歪曲なし -->
  <g transform="translate(10,10)">
    <text x="60" y="12" text-anchor="middle" font-size="11" font-family="sans-serif" fill="#333" font-weight="bold">歪曲なし</text>
    <rect x="20" y="20" width="80" height="80" fill="none" stroke="#aaa" stroke-width="1"/>
    <line x1="20" y1="47" x2="100" y2="47" stroke="#aaa" stroke-width="0.8"/>
    <line x1="20" y1="73" x2="100" y2="73" stroke="#aaa" stroke-width="0.8"/>
    <line x1="47" y1="20" x2="47" y2="100" stroke="#aaa" stroke-width="0.8"/>
    <line x1="73" y1="20" x2="73" y2="100" stroke="#aaa" stroke-width="0.8"/>
  </g>

  <!-- 樽型歪曲 -->
  <g transform="translate(160,10)">
    <text x="65" y="12" text-anchor="middle" font-size="11" font-family="sans-serif" fill="#c62828" font-weight="bold">樽型歪曲</text>
    <path d="M20,25 Q65,35 110,25" fill="none" stroke="#c62828" stroke-width="1.2"/>
    <path d="M20,95 Q65,85 110,95" fill="none" stroke="#c62828" stroke-width="1.2"/>
    <path d="M25,20 Q35,60 25,100" fill="none" stroke="#c62828" stroke-width="1.2"/>
    <path d="M105,20 Q95,60 105,100" fill="none" stroke="#c62828" stroke-width="1.2"/>
    <path d="M25,47 Q65,53 105,47" fill="none" stroke="#c62828" stroke-width="0.6"/>
    <path d="M25,73 Q65,67 105,73" fill="none" stroke="#c62828" stroke-width="0.6"/>
    <path d="M47,25 Q53,60 47,95" fill="none" stroke="#c62828" stroke-width="0.6"/>
    <path d="M83,25 Q77,60 83,95" fill="none" stroke="#c62828" stroke-width="0.6"/>
    <text x="65" y="125" text-anchor="middle" font-size="9" font-family="sans-serif" fill="#666">広角レンズで顕著</text>
  </g>

  <!-- 糸巻き型歪曲 -->
  <g transform="translate(310,10)">
    <text x="70" y="12" text-anchor="middle" font-size="11" font-family="sans-serif" fill="#1976d2" font-weight="bold">糸巻き型歪曲</text>
    <path d="M25,30 Q70,20 115,30" fill="none" stroke="#1976d2" stroke-width="1.2"/>
    <path d="M25,90 Q70,100 115,90" fill="none" stroke="#1976d2" stroke-width="1.2"/>
    <path d="M30,25 Q20,60 30,95" fill="none" stroke="#1976d2" stroke-width="1.2"/>
    <path d="M110,25 Q120,60 110,95" fill="none" stroke="#1976d2" stroke-width="1.2"/>
    <path d="M30,47 Q70,43 110,47" fill="none" stroke="#1976d2" stroke-width="0.6"/>
    <path d="M30,73 Q70,77 110,73" fill="none" stroke="#1976d2" stroke-width="0.6"/>
    <path d="M50,30 Q46,60 50,90" fill="none" stroke="#1976d2" stroke-width="0.6"/>
    <path d="M90,30 Q94,60 90,90" fill="none" stroke="#1976d2" stroke-width="0.6"/>
    <text x="70" y="125" text-anchor="middle" font-size="9" font-family="sans-serif" fill="#666">望遠レンズで顕著</text>
  </g>
</svg>
